<svg width="24" height="24" viewBox="0 0 24 24" fill="none" xmlns="http://www.w3.org/2000/svg">
<g clip-path="url(#clip0_6331_2245)">
<path d="M17.01 12.75C16.74 13.515 16.1775 14.25 15 14.25H12.255L12.465 15.93L12.9675 20.0325C13.005 20.37 12.855 20.6025 12.7575 20.7075C12.66 20.8125 12.45 21 12.1125 21C11.775 21 11.5725 20.8275 11.475 20.7225C11.3775 20.6175 11.2275 20.3925 11.2575 20.0625L11.6475 15.8925L11.805 14.25H9C7.8225 14.25 7.2525 13.515 6.99 12.75H17.0175M18.75 11.25H5.25C5.25 13.71 6.54 15.75 9 15.75H10.155L9.765 19.92C9.6375 21.3075 10.725 22.5 12.1125 22.5C13.5 22.5 14.625 21.2625 14.4525 19.8525L13.95 15.75H15C17.46 15.75 18.75 13.71 18.75 11.25Z" fill="#3387C5"/>
<path d="M10.8411 3L12.1592 5.26501L13.3959 7.38752L14.6844 5.29501L15.3065 4.29001L16.5432 6.33752L17.2615 4.86751V8.98502H6.73108V3H10.8411ZM18.75 1.5H17.2541L16.4099 3.23251L15.3657 1.5H15.2917L13.4403 4.50001L11.6853 1.5H5.25V10.4775H18.75V1.5Z" fill="#3387C5"/>
</g>
<defs>
<clipPath id="clip0_6331_2245">
<rect width="24" height="24" fill="white"/>
</clipPath>
</defs>
</svg>
