<svg width="32" height="32" viewBox="0 0 32 32" fill="none" xmlns="http://www.w3.org/2000/svg">
<g clip-path="url(#clip0_6325_2225)">
<path d="M22.68 17C22.32 18.02 21.57 19 20 19H16.34L16.62 21.24L17.29 26.71C17.34 27.16 17.14 27.47 17.01 27.61C16.88 27.75 16.6 28 16.15 28C15.7 28 15.43 27.77 15.3 27.63C15.17 27.49 14.97 27.19 15.01 26.75L15.53 21.19L15.74 19H12C10.43 19 9.67 18.02 9.32 17H22.69M25 15H7C7 18.28 8.72 21 12 21H13.54L13.02 26.56C12.85 28.41 14.3 30 16.15 30C18 30 19.5 28.35 19.27 26.47L18.6 21H20C23.28 21 25 18.28 25 15Z" fill="#3387C5"/>
<path d="M14.4547 4.00001L16.2123 7.02002L17.8612 9.85003L19.5793 7.06002L20.4087 5.72001L22.0576 8.45002L23.0154 6.49001V11.98H8.97477V4.00001H14.4547ZM25 2H23.0055L21.8799 4.31001L20.4877 2H20.3889L17.9205 6.00001L15.5804 2H7V13.97H25V2Z" fill="#3387C5"/>
</g>
<defs>
<clipPath id="clip0_6325_2225">
<rect width="32" height="32" fill="white"/>
</clipPath>
</defs>
</svg>
