<svg width="16" height="16" viewBox="0 0 16 16" fill="none" xmlns="http://www.w3.org/2000/svg">
<g clip-path="url(#clip0_6325_2230)">
<path d="M11.34 8.5C11.16 9.01 10.785 9.50001 10 9.50001H8.17L8.31 10.62L8.645 13.355C8.67 13.58 8.57 13.735 8.505 13.805C8.44 13.875 8.3 14 8.075 14C7.85 14 7.715 13.885 7.65 13.815C7.585 13.745 7.485 13.595 7.505 13.375L7.765 10.595L7.87 9.50001H6C5.215 9.50001 4.835 9.01 4.66 8.5H11.345M12.5 7.5H3.5C3.5 9.14001 4.36 10.5 6 10.5H6.77L6.51 13.28C6.425 14.205 7.15 15 8.075 15C9 15 9.75 14.175 9.635 13.235L9.3 10.5H10C11.64 10.5 12.5 9.14001 12.5 7.5Z" fill="#3387C5"/>
<path d="M7.22737 2L8.10614 3.51001L8.93061 4.92501L9.78963 3.53001L10.2043 2.86001L11.0288 4.22501L11.5077 3.24501V5.99002H4.48738V2H7.22737ZM12.5 1H11.5027L10.9399 2.155L10.2438 1H10.1945L8.96023 3.00001L7.79018 1H3.5V6.98502H12.5V1Z" fill="#3387C5"/>
</g>
<defs>
<clipPath id="clip0_6325_2230">
<rect width="16" height="16" fill="white"/>
</clipPath>
</defs>
</svg>
