<?xml version="1.0" encoding="UTF-8"?>
<svg id="Layer_1" data-name="Layer 1" xmlns="http://www.w3.org/2000/svg" viewBox="0 0 24 24">
  <defs>
    <style>
      .cls-1 {
      fill: currentColor;
      }
    </style>
  </defs>
  <path class="cls-1"
    d="M4.48,14.37l-1.52,4.61h-1.96L6.01,4.31h2.26l5.01,14.67h-2.02l-1.57-4.61h-5.2ZM9.31,12.89l-1.46-4.22c-.33-.96-.54-1.83-.76-2.68h-.04c-.22.85-.44,1.76-.74,2.65l-1.44,4.24h4.44Z" />
  <path class="cls-1"
    d="M22.85,16.29c0,.9.04,1.77.15,2.47h-1.72l-.15-1.3h-.07c-.59.81-1.72,1.53-3.22,1.53-2.13,0-3.22-1.47-3.22-2.96,0-2.5,2.26-3.86,6.33-3.84v-.21c0-.83-.24-2.39-2.39-2.37-1,0-2.02.28-2.76.77l-.44-1.26c.87-.53,2.15-.9,3.48-.9,3.22,0,4,2.15,4,4.2v3.86ZM21,13.5c-2.09-.04-4.46.32-4.46,2.32,0,1.24.83,1.79,1.78,1.79,1.39,0,2.29-.85,2.59-1.73.07-.21.09-.43.09-.6v-1.79Z" />
</svg>