<?xml version="1.0" encoding="UTF-8"?>
<svg id="Layer_1" data-name="Layer 1" xmlns="http://www.w3.org/2000/svg" viewBox="0 0 32 32">
  <defs>
    <style>
      .cls-1 {
      fill: currentColor;
      }
    </style>
  </defs>
  <path class="cls-1"
    d="M5.76,18.69l-2.07,6.28H1.02L7.84,5h3.08l6.82,19.97h-2.76l-2.13-6.28h-7.08ZM12.34,16.68l-1.99-5.75c-.44-1.3-.74-2.49-1.04-3.65h-.06c-.3,1.16-.59,2.4-1.01,3.62l-1.96,5.78h6.05Z" />
  <path class="cls-1"
    d="M30.77,21.31c0,1.22.06,2.41.21,3.37h-2.34l-.21-1.77h-.09c-.8,1.1-2.34,2.09-4.39,2.09-2.9,0-4.39-2-4.39-4.04,0-3.4,3.08-5.26,8.62-5.23v-.29c0-1.13-.33-3.25-3.26-3.22-1.36,0-2.76.38-3.76,1.05l-.59-1.71c1.19-.73,2.93-1.22,4.74-1.22,4.39,0,5.45,2.93,5.45,5.72v5.26ZM28.25,17.51c-2.84-.06-6.08.43-6.08,3.17,0,1.68,1.13,2.44,2.43,2.44,1.9,0,3.11-1.16,3.53-2.35.09-.29.12-.58.12-.81v-2.44Z" />
</svg>