<svg width="32" height="32" viewBox="0 0 32 32" fill="none" xmlns="http://www.w3.org/2000/svg">
<path d="M28.0708 13.9291L13.9286 28.0712L1.85742 16L15.9996 1.85786L28.0708 13.9291ZM25.4999 14.0002L15.9996 4.68629L6.50057 14.0002H25.4999Z" fill="#3387C5"/>
<mask id="path-2-inside-1_6364_2329" fill="white">
<path d="M14.9497 5.05025C13.637 3.7375 11.8565 3 10 3C8.14348 3 6.36301 3.7375 5.05025 5.05025C3.7375 6.36301 3 8.14349 3 10C3 11.8565 3.7375 13.637 5.05025 14.9497L10 10L14.9497 5.05025Z"/>
</mask>
<path d="M14.9497 5.05025C13.637 3.7375 11.8565 3 10 3C8.14348 3 6.36301 3.7375 5.05025 5.05025C3.7375 6.36301 3 8.14349 3 10C3 11.8565 3.7375 13.637 5.05025 14.9497L10 10L14.9497 5.05025Z" fill="#D9D9D9" stroke="#3387C5" stroke-width="4" mask="url(#path-2-inside-1_6364_2329)"/>
<path d="M30 27C30 29 28 31 26 31C24 31 22 29 22 27C22 25 23.5 23.3333 26 20C28.5 23.3333 30 25 30 27Z" fill="#3387C5"/>
</svg>
