<svg width="24" height="24" viewBox="0 0 24 24" fill="none" xmlns="http://www.w3.org/2000/svg">
<path d="M21.5601 10.0096L11.0045 20.565L1.99512 11.5557L12.5507 1.0002L21.5601 10.0096ZM19.6411 10.0627L12.55 3.11115L5.46023 10.0627H19.6411Z" fill="#3387C5"/>
<mask id="path-2-inside-1_6364_2418" fill="white">
<path d="M11.7667 3.38279C10.7869 2.40299 9.45798 1.85254 8.07231 1.85254C6.68665 1.85254 5.35773 2.40299 4.37792 3.38279C3.39811 4.3626 2.84766 5.6915 2.84766 7.07716C2.84766 8.46281 3.39811 9.79171 4.37792 10.7715L8.07231 7.07716L11.7667 3.38279Z"/>
</mask>
<path d="M11.7667 3.38279C10.7869 2.40299 9.45798 1.85254 8.07231 1.85254C6.68665 1.85254 5.35773 2.40299 4.37792 3.38279C3.39811 4.3626 2.84766 5.6915 2.84766 7.07716C2.84766 8.46281 3.39811 9.79171 4.37792 10.7715L8.07231 7.07716L11.7667 3.38279Z" fill="#D9D9D9" stroke="#3387C5" stroke-width="3" mask="url(#path-2-inside-1_6364_2418)"/>
<path d="M22.9994 19.7656C22.9994 21.2584 21.5066 22.7511 20.0138 22.7511C18.5211 22.7511 17.0283 21.2584 17.0283 19.7656C17.0283 18.2729 18.1479 17.0289 20.0138 14.541C21.8798 17.0289 22.9994 18.2729 22.9994 19.7656Z" fill="#3387C5"/>
</svg>
