<svg width="16" height="16" viewBox="0 0 16 16" fill="none" xmlns="http://www.w3.org/2000/svg">
<path d="M14.0728 6.79956L7.27946 13.5932L1.48047 7.79395L8.27381 1.00034L14.0728 6.79956ZM5.39227 6.83477L9.23501 6.83408H12.8381L8.2745 2.36003L3.71085 6.83408L5.39227 6.83477Z" fill="#3387C5"/>
<mask id="path-2-inside-1_6364_2433" fill="white">
<path d="M7.77072 2.53377C7.1401 1.90312 6.28479 1.54883 5.39295 1.54883C4.50111 1.54883 3.6458 1.90312 3.01518 2.53377C2.38455 3.16442 2.03027 4.01977 2.03027 4.91164C2.03027 5.80351 2.38455 6.65886 3.01518 7.28951L5.39295 4.91164L7.77072 2.53377Z"/>
</mask>
<path d="M7.77072 2.53377C7.1401 1.90312 6.28479 1.54883 5.39295 1.54883C4.50111 1.54883 3.6458 1.90312 3.01518 2.53377C2.38455 3.16442 2.03027 4.01977 2.03027 4.91164C2.03027 5.80351 2.38455 6.65886 3.01518 7.28951L5.39295 4.91164L7.77072 2.53377Z" fill="#D9D9D9" stroke="#3387C5" stroke-width="2" mask="url(#path-2-inside-1_6364_2433)"/>
<path d="M15.0003 13.0786C15.0003 14.0394 14.0395 15.0002 13.0788 15.0002C12.118 15.0002 11.1572 14.0394 11.1572 13.0786C11.1572 12.1178 11.8778 11.3172 13.0788 9.71582C14.2797 11.3172 15.0003 12.1178 15.0003 13.0786Z" fill="#3387C5"/>
</svg>
