<?xml version="1.0" encoding="UTF-8"?>
<svg id="Layer_1" data-name="Layer 1" xmlns="http://www.w3.org/2000/svg" viewBox="0 0 32 32">
  <defs>
    <style>
      .cls-1 {
      fill: currentColor;
      }
    </style>
  </defs>
  <path class="cls-1"
    d="M13.82,20.03c0,1.12.05,2.22.18,3.1h-2.01l-.18-1.63h-.08c-.69,1.02-2.01,1.92-3.76,1.92-2.49,0-3.76-1.84-3.76-3.71,0-3.13,2.64-4.84,7.4-4.81v-.27c0-1.04-.28-2.99-2.8-2.97-1.17,0-2.36.35-3.23.96l-.51-1.58c1.02-.67,2.52-1.12,4.07-1.12,3.76,0,4.68,2.7,4.68,5.26v4.84ZM11.66,16.53c-2.44-.05-5.21.4-5.21,2.91,0,1.55.97,2.24,2.08,2.24,1.63,0,2.67-1.07,3.02-2.16.08-.27.1-.53.1-.75v-2.24Z" />
  <path class="cls-1"
    d="M17.11,5h2.44v7.28h-.75c.87-1.44,2.44-2.35,4.62-2.35,3.39,0,5.75,2.67,5.75,6.57,0,4.62-3.08,6.92-6.11,6.92-1.96,0-2.72-.72-3.76-2.4h-.3l.1,2.11h-2.1c.06-.88.11-2.19.11-3.34V5ZM19.38,17.94c0,.29.08.59.17.85.45,1.63,1.21,2.75,3,2.75,2.61,0,4.12-2,4.12-4.97,0-2.59-1.4-4.81-4.06-4.81-1.65,0-2.55,1.12-3.06,2.89-.08.29-.17.61-.17.99v2.3Z" />
  <rect class="cls-1" x="1" y="23" width="2" height="4" />
  <rect class="cls-1" x="29" y="23" width="2" height="4" />
  <rect class="cls-1" x="1.67" y="25" width="29.33" height="2" />
</svg>