<?xml version="1.0" encoding="UTF-8"?>
<svg id="Layer_1" data-name="Layer 1" xmlns="http://www.w3.org/2000/svg" viewBox="0 0 24 24">
  <defs>
    <style>
      .cls-1 {
      fill: currentColor;
      }
    </style>
  </defs>
  <path class="cls-1"
    d="M10.41,14.93c0,.82.04,1.61.13,2.25h-1.47l-.13-1.18h-.06c-.5.74-1.47,1.4-2.76,1.4-1.83,0-2.76-1.34-2.76-2.7,0-2.27,1.94-3.52,5.43-3.5v-.19c0-.76-.2-2.18-2.05-2.16-.86,0-1.73.25-2.37.7l-.37-1.15c.75-.49,1.85-.82,2.98-.82,2.76,0,3.43,1.96,3.43,3.83v3.52ZM8.82,12.38c-1.79-.04-3.82.29-3.82,2.12,0,1.13.71,1.63,1.53,1.63,1.19,0,1.96-.78,2.22-1.57.06-.19.07-.39.07-.54v-1.63Z" />
  <path class="cls-1"
    d="M12.82,4h1.79v5.29h-.55c.64-1.05,1.79-1.71,3.39-1.71,2.49,0,4.21,1.94,4.21,4.78,0,3.36-2.26,5.03-4.48,5.03-1.44,0-2-.52-2.76-1.75h-.22l.08,1.54h-1.54c.04-.64.08-1.59.08-2.43V4ZM14.49,13.41c0,.21.06.43.12.62.33,1.19.89,2,2.2,2,1.91,0,3.02-1.46,3.02-3.61,0-1.88-1.03-3.5-2.98-3.5-1.21,0-1.87.82-2.24,2.1-.06.21-.12.45-.12.72v1.67Z" />
  <rect class="cls-1" x="1" y="17" width="1.47" height="3" />
  <rect class="cls-1" x="21.54" y="17" width="1.47" height="3" />
  <rect class="cls-1" x="1.49" y="18.55" width="21.52" height="1.45" />
</svg>