<?xml version="1.0" encoding="UTF-8"?>
<svg id="Layer_1" data-name="Layer 1" xmlns="http://www.w3.org/2000/svg" viewBox="0 0 24 24">
  <defs>
    <style>
      .cls-1 {
      fill: currentColor;
      }
    </style>
  </defs>
  <path class="cls-1"
    d="M9.25,19.01c0,.5-.02,1.12.04,1.51h-.94l-.08-.86h-.04c-.32.45-.94.86-1.76.86-1.16,0-1.76-.82-1.76-1.65,0-1.39,1.24-2.15,3.46-2.14v-.12c0-.46-.13-1-1.31-.98-.55,0-1.1.22-1.51.5l-.6-.89c.48-.3,1.53-.71,2.26-.71,1.76,0,2.23,1.2,2.23,2.34v2.15ZM8.19,17.63c-.91-.02-2.28.14-2.28,1.03,0,.55.29.8,1.11.8.61,0,1-.38,1.13-.77.03-.09.04-.19.04-.27v-.8Z" />
  <path class="cls-1"
    d="M16.04,7.01c0,.5-.02,1.12.04,1.51h-.94l-.08-.86h-.04c-.32.45-.94.86-1.76.86-1.16,0-1.76-.82-1.76-1.65,0-1.39,1.24-2.15,3.46-2.14v-.12c0-.46-.13-1-1.31-.98-.55,0-1.1.22-1.51.5l-.6-.89c.48-.3,1.53-.71,2.26-.71,1.76,0,2.23,1.2,2.23,2.34v2.15ZM14.98,5.63c-.91-.02-2.28.14-2.28,1.03,0,.55.29.8,1.11.8.61,0,1-.38,1.13-.77.03-.09.04-.19.04-.27v-.8Z" />
  <path class="cls-1"
    d="M16.79,1.07h1.37v3.24h.02c.32-.58.9-.94,1.7-.94,1.25,0,2.12,1.07,2.12,2.63,0,1.85-1.13,2.76-2.25,2.76-.72,0-1.3-.29-1.68-.96h-.02l-.05.84h-1.25c.02-.35.04-.88.04-1.33V1.07ZM18.14,6.46c0,.09,0,.18.04.26.15.5.63.84,1.22.84.86,0,1.35-.61,1.35-1.53,0-.8-.46-1.48-1.34-1.48-.54,0-1.06.34-1.22.89-.03.09-.05.19-.05.3v.7Z" />
  <path class="cls-1"
    d="M15.23,20.19c-.27.13-.87.33-1.64.33-1.72,0-2.84-1.17-2.84-2.91s1.2-3.04,3.07-3.04c.61,0,1.16.15,1.44.31v1.23c-.25-.13-.87-.34-1.44-.34-.89,0-1.57.58-1.57,1.76,0,1.32.77,1.72,1.53,1.72.59,0,1.16-.12,1.45-.25v1.2Z" />
  <path class="cls-1" d="M17.5,13.77v7.5H2.5v-7.5h15M19,12.27H1v10.5h18v-10.5h0Z" />
  <polygon class="cls-1"
    points="6.25 9.27 6.25 10.77 20.5 10.77 20.5 21.27 22 21.27 22 9.27 6.25 9.27" />
  <g>
    <path class="cls-1"
      d="M4,10.02h-1.5v-2.23c0-2.08,1.69-3.77,3.77-3.77h3.73v1.5h-3.73c-1.25,0-2.27,1.02-2.27,2.27v2.23Z" />
    <polygon class="cls-1" points="3.25 11.52 1 8.52 5.5 8.52 3.25 11.52" />
  </g>
</svg>