<?xml version="1.0" encoding="UTF-8"?>
<svg id="Layer_1" data-name="Layer 1" xmlns="http://www.w3.org/2000/svg" viewBox="0 0 24 24">
  <defs>
    <style>
      .cls-1 {
      fill: currentColor;
      }
    </style>
  </defs>
  <path class="cls-1"
    d="M15.62.88h1.64v3.75h.02c.38-.67,1.07-1.09,2.04-1.09,1.49,0,2.53,1.24,2.53,3.04,0,2.14-1.36,3.2-2.69,3.2-.86,0-1.56-.33-2.01-1.11h-.02l-.06.98h-1.49c.02-.41.05-1.01.05-1.54V.88ZM17.23,7.12c0,.1.01.21.04.3.18.58.75.98,1.46.98,1.03,0,1.62-.71,1.62-1.77,0-.92-.55-1.71-1.6-1.71-.65,0-1.27.4-1.47,1.03-.03.1-.06.22-.06.35v.82Z" />
  <path class="cls-1"
    d="M13.98,19.4c-.28.14-.91.35-1.72.35-1.8,0-2.98-1.22-2.98-3.05s1.26-3.19,3.21-3.19c.64,0,1.21.16,1.51.32v1.29c-.27-.14-.91-.36-1.51-.36-.93,0-1.64.64-1.64,1.87,0,1.38.81,1.77,1.6,1.77.62,0,1.21-.13,1.52-.26v1.26Z" />
  <path class="cls-1" d="M20.29,11.88v9.43H4.57v-9.43h15.71M21.86,10.31H3v12.57h18.86v-12.57h0Z" />
  <path class="cls-1"
    d="M7.71,7.17h-1.57v-2.34c0-2.18,1.77-3.95,3.95-3.95h3.91v1.57h-3.91c-1.31,0-2.37,1.07-2.37,2.37v2.34Z" />
  <polygon class="cls-1" points="6.93 8.74 4.57 5.6 9.29 5.6 6.93 8.74" />
</svg>