<?xml version="1.0" encoding="UTF-8"?>
<svg id="Layer_1" data-name="Layer 1" xmlns="http://www.w3.org/2000/svg" viewBox="0 0 32 32">
  <defs>
    <style>
      .cls-1 {
      fill: currentColor;
      }
    </style>
  </defs>
  <path class="cls-1"
    d="M13,24.99c0,.67-.03,1.49.05,2.01h-1.25l-.11-1.14h-.05c-.43.6-1.25,1.14-2.34,1.14-1.55,0-2.34-1.09-2.34-2.2,0-1.85,1.65-2.87,4.61-2.85v-.16c0-.62-.17-1.33-1.74-1.31-.73,0-1.47.3-2.01.66l-.79-1.19c.63-.4,2.05-.95,3.01-.95,2.34,0,2.98,1.6,2.98,3.12v2.87ZM11.59,23.14c-1.21-.03-3.03.19-3.03,1.38,0,.73.39,1.06,1.48,1.06.81,0,1.33-.51,1.51-1.02.04-.13.05-.25.05-.35v-1.06Z" />
  <path class="cls-1"
    d="M22.05,8.99c0,.67-.03,1.49.05,2.01h-1.25l-.11-1.14h-.05c-.43.6-1.25,1.14-2.34,1.14-1.55,0-2.34-1.09-2.34-2.2,0-1.85,1.65-2.87,4.61-2.85v-.16c0-.62-.17-1.33-1.74-1.31-.73,0-1.47.3-2.01.66l-.79-1.19c.63-.4,2.05-.95,3.01-.95,2.34,0,2.98,1.6,2.98,3.12v2.87ZM20.64,7.14c-1.21-.03-3.03.19-3.03,1.38,0,.73.39,1.06,1.48,1.06.81,0,1.33-.51,1.51-1.02.04-.13.05-.25.05-.35v-1.06Z" />
  <path class="cls-1"
    d="M23.06,1.07h1.83v4.33h.03c.43-.77,1.2-1.25,2.27-1.25,1.66,0,2.82,1.42,2.82,3.5,0,2.46-1.51,3.69-3,3.69-.96,0-1.73-.38-2.24-1.28h-.03l-.07,1.12h-1.66c.03-.47.06-1.17.06-1.78V1.07ZM24.85,8.26c0,.12.01.24.05.35.2.67.84,1.13,1.62,1.13,1.14,0,1.8-.82,1.8-2.03,0-1.06-.61-1.97-1.78-1.97-.72,0-1.41.46-1.63,1.18-.04.12-.06.25-.06.4v.94Z" />
  <path class="cls-1"
    d="M20.97,26.56c-.36.17-1.16.44-2.19.44-2.3,0-3.79-1.56-3.79-3.88s1.6-4.06,4.09-4.06c.82,0,1.54.2,1.92.41v1.65c-.34-.17-1.16-.46-1.92-.46-1.19,0-2.09.77-2.09,2.34,0,1.76,1.03,2.29,2.04,2.29.79,0,1.54-.16,1.94-.33v1.6Z" />
  <path class="cls-1" d="M24,18v10H4v-10h20M26,16H2v14h24v-14h0Z" />
  <polygon class="cls-1" points="9 12 9 14 28 14 28 28 30 28 30 12 9 12" />
  <g>
    <path class="cls-1"
      d="M6,13h-2v-2.98c0-2.77,2.25-5.02,5.02-5.02h4.98v2h-4.98c-1.67,0-3.02,1.36-3.02,3.02v2.98Z" />
    <polygon class="cls-1" points="5 15 2 11 8 11 5 15" />
  </g>
</svg>