<?xml version="1.0" encoding="UTF-8"?>
<svg id="Layer_1" data-name="Layer 1" xmlns="http://www.w3.org/2000/svg" viewBox="0 0 32 32">
  <defs>
    <style>
      .cls-1 {
      fill: currentColor;
      }
    </style>
  </defs>
  <path class="cls-1"
    d="M20.06,2h2.09v4.78h.03c.49-.85,1.37-1.38,2.59-1.38,1.9,0,3.22,1.57,3.22,3.87,0,2.72-1.73,4.07-3.43,4.07-1.1,0-1.98-.42-2.56-1.41h-.03l-.08,1.24h-1.9c.03-.52.06-1.29.06-1.96V2ZM22.11,9.94c0,.13.01.27.06.39.22.74.95,1.24,1.85,1.24,1.3,0,2.06-.91,2.06-2.25,0-1.17-.7-2.17-2.03-2.17-.83,0-1.61.51-1.87,1.3-.04.13-.07.28-.07.45v1.04Z" />
  <path class="cls-1"
    d="M17.97,25.56c-.36.17-1.16.44-2.19.44-2.3,0-3.79-1.56-3.79-3.88s1.6-4.06,4.09-4.06c.82,0,1.54.2,1.92.41v1.65c-.34-.17-1.16-.46-1.92-.46-1.19,0-2.09.81-2.09,2.38,0,1.76,1.03,2.25,2.04,2.25.79,0,1.54-.16,1.94-.33v1.6Z" />
  <path class="cls-1" d="M26,16v12H6v-12h20M28,14H4v16h24V14h0Z" />
  <path class="cls-1"
    d="M10,10h-2v-2.98c0-2.77,2.25-5.02,5.02-5.02h4.98v2h-4.98c-1.67,0-3.02,1.36-3.02,3.02v2.98Z" />
  <polygon class="cls-1" points="9 12 6 8 12 8 9 12" />
</svg>