<svg width="40" height="40" viewBox="0 0 40 40" fill="none" xmlns="http://www.w3.org/2000/svg">
<g clip-path="url(#clip0_2570_1136)">
<circle opacity="0.3" cx="20" cy="20" r="20" fill="#E28835"/>
<path fill-rule="evenodd" clip-rule="evenodd" d="M20.8741 9.51443C20.4931 8.82852 19.5067 8.82852 19.1257 9.51443L9.12724 27.5152C8.75702 28.1817 9.23899 29.0007 10.0014 29.0007H29.9984C30.7608 29.0007 31.2428 28.1817 30.8726 27.5152L20.8741 9.51443ZM19.2305 22.4125L19.0747 14.9599H20.8783L20.7298 22.4125H19.2305ZM21.1232 25.1204C21.1232 25.807 20.6704 26.2699 19.9876 26.2699C19.2973 26.2699 18.8371 25.807 18.8371 25.1204C18.8371 24.4261 19.2973 23.9632 19.9876 23.9632C20.6704 23.9632 21.1232 24.4261 21.1232 25.1204Z" fill="#E28835"/>
</g>
<defs>
<clipPath id="clip0_2570_1136">
<rect width="40" height="40" fill="white"/>
</clipPath>
</defs>
</svg>
